<svg width="63" height="64" viewBox="0 0 63 64" fill="none" xmlns="http://www.w3.org/2000/svg">
<path fill-rule="evenodd" clip-rule="evenodd" d="M30.4989 1V6.64927C28.5559 5.80904 26.1592 6.55877 24.8909 8.4462C23.9718 9.81651 23.7042 11.5746 24.1579 13.2423C24.5884 14.8711 25.7752 16.2156 27.2528 16.7326C28.3582 17.1205 29.4983 17.0688 30.4989 16.6422V19.163H25.1586C25.0073 19.163 24.8793 19.2018 24.7397 19.2535C24.7222 19.26 24.7077 19.2697 24.6932 19.2794C24.6786 19.2891 24.6641 19.2988 24.6466 19.3053C24.5535 19.3569 24.4721 19.4216 24.3906 19.4991L24.3092 19.5896C24.2395 19.6799 24.1815 19.7831 24.1235 19.8862L24.1231 19.8869C24.1114 19.9258 24.0998 19.9516 24.0881 19.9774C24.0823 19.9904 24.0765 20.0001 24.0706 20.0098L24.0706 20.0099C24.0648 20.0195 24.0591 20.0292 24.0533 20.0421C23.9718 20.3265 23.9834 20.6367 24.0765 20.9082C24.0881 20.9276 24.0969 20.947 24.1056 20.9664C24.1143 20.9858 24.1231 21.0052 24.1347 21.0246C24.1696 21.128 24.2277 21.2185 24.2975 21.2961C24.3208 21.3348 24.3558 21.3736 24.3906 21.4123L24.3906 21.4124C24.4023 21.4188 24.411 21.4318 24.4198 21.4448C24.4285 21.4577 24.4372 21.4706 24.4488 21.4771C25.0771 22.007 25.4262 22.8085 25.4262 23.6876C25.4262 24.502 25.1003 25.2777 24.5419 25.8077C23.9602 26.3378 23.2272 26.5446 22.4593 26.3895C21.4471 26.1955 20.6093 25.226 20.4697 24.0883C20.3417 23.08 20.7024 22.1234 21.4471 21.4641C21.4528 21.4577 21.4557 21.4512 21.4586 21.4448C21.4615 21.4383 21.4644 21.4318 21.4703 21.4253C21.5517 21.3477 21.6215 21.2572 21.6797 21.1539L21.7495 21.0375C21.7961 20.9341 21.8193 20.8307 21.831 20.7272C21.8352 20.704 21.8409 20.6824 21.8464 20.6612L21.8465 20.6612C21.8564 20.6236 21.8659 20.5876 21.8659 20.5462C21.8659 20.5249 21.873 20.5075 21.8793 20.4918C21.8845 20.479 21.8892 20.4674 21.8892 20.4557C21.8892 20.4072 21.8755 20.3637 21.8624 20.3221C21.8546 20.2973 21.847 20.2731 21.8426 20.2489C21.839 20.2252 21.8366 20.2027 21.8342 20.181C21.8288 20.1318 21.8239 20.087 21.8077 20.0421C21.7802 19.9606 21.7455 19.8952 21.7092 19.8268L21.7092 19.8268L21.7092 19.8268C21.6994 19.8084 21.6896 19.7898 21.6797 19.7706C21.6681 19.7513 21.6594 19.7287 21.6507 19.7061C21.642 19.6834 21.6332 19.6608 21.6215 19.6413C21.6177 19.637 21.6138 19.6342 21.61 19.6313C21.6022 19.6256 21.5945 19.6199 21.5867 19.6026C21.5369 19.5474 21.4787 19.5015 21.4121 19.4491L21.3773 19.4216L21.3482 19.3971L21.3482 19.3971C21.3075 19.3627 21.2609 19.3234 21.2143 19.2923C21.1818 19.2779 21.1457 19.2674 21.108 19.2566L21.1079 19.2565C21.0782 19.248 21.0474 19.2391 21.0166 19.2277C20.9351 19.2018 20.8537 19.1759 20.7722 19.1759C20.7606 19.1759 20.7518 19.1727 20.7431 19.1695C20.7344 19.1662 20.7257 19.163 20.7141 19.163H13.1398C14.2334 9.40282 21.6215 1.60763 30.4989 1ZM44.0882 19.163H50.1965C49.1145 9.27358 41.7845 1.62049 32.8257 1.01294V9.17014C32.8257 9.32526 32.7908 9.48038 32.7443 9.62257C32.7326 9.67432 32.7094 9.71307 32.6861 9.75189C32.6396 9.85533 32.593 9.93289 32.5232 10.0105C32.5 10.0492 32.465 10.088 32.4302 10.1268C32.3604 10.1914 32.2789 10.2561 32.1975 10.2948C32.18 10.3078 32.1596 10.3207 32.1393 10.3336L32.1392 10.3336C32.1189 10.3465 32.0985 10.3594 32.0811 10.3724C32.0739 10.3724 32.0668 10.3773 32.0568 10.3841C32.0507 10.3883 32.0435 10.3933 32.0345 10.3983C31.9182 10.437 31.7902 10.4629 31.6739 10.4629H31.6622C31.6564 10.4629 31.6506 10.4596 31.6447 10.4564C31.6389 10.4532 31.6331 10.4499 31.6274 10.4499C31.4993 10.4499 31.3714 10.4241 31.255 10.3724C31.2325 10.364 31.2099 10.3503 31.1842 10.3346L31.1842 10.3346C31.1701 10.326 31.1551 10.3169 31.1386 10.3078C31.0572 10.2561 30.9874 10.2043 30.906 10.1397L30.8013 10.0233C30.7954 10.0104 30.7838 10.0007 30.7722 9.99107C30.7606 9.98136 30.7489 9.97165 30.7431 9.95869C30.266 9.27358 29.533 8.87283 28.7652 8.87283C27.974 8.87283 27.241 9.27358 26.7639 9.98457C26.2753 10.7085 26.1473 11.6005 26.3917 12.5054C26.6011 13.3199 27.2177 14.005 27.9507 14.2765C29.2189 14.716 30.2195 14.0696 30.7431 13.3199L30.8129 13.2423C30.8246 13.2293 30.8392 13.2163 30.8539 13.2032L30.8539 13.2032C30.8684 13.1904 30.8828 13.1776 30.8944 13.1647C30.9758 13.0742 31.0572 13.0095 31.1619 12.9579L31.1681 12.9546L31.1813 12.948L31.186 12.9457C31.2064 12.9359 31.2307 12.9242 31.255 12.9062C31.4993 12.8027 31.7786 12.7898 32.0345 12.8803C32.0462 12.8868 32.055 12.8933 32.0637 12.8998L32.0638 12.8998C32.0724 12.9062 32.0811 12.9127 32.0927 12.9191C32.1276 12.932 32.1509 12.9449 32.1858 12.9708C32.2789 13.0225 32.3604 13.0872 32.4302 13.1518L32.5348 13.2681C32.593 13.3457 32.6396 13.4232 32.6861 13.5137C32.6921 13.5271 32.6981 13.5396 32.7039 13.5516C32.7206 13.5863 32.7356 13.6176 32.7443 13.6559C32.7908 13.7852 32.8141 13.9145 32.8141 14.0567C32.8141 14.0632 32.817 14.0728 32.8199 14.0825C32.8228 14.0922 32.8257 14.1019 32.8257 14.1084V19.163H35.0945C34.8851 18.5555 34.7687 17.9091 34.7687 17.2368C34.7687 15.6597 35.3854 14.173 36.4674 13.1518C37.5611 12.1305 39.0038 11.691 40.4233 11.9496C42.4128 12.3244 44.0301 14.1472 44.3559 16.3707C44.4838 17.3273 44.3907 18.2969 44.0882 19.163ZM43.1806 47.2414V49.9084H19.911V47.2414C19.911 46.5304 20.4346 45.9487 21.0745 45.9487H42.0172C42.6687 45.9487 43.1806 46.5304 43.1806 47.2414ZM19.9108 52.3994V52.4951H19.9118C19.9578 54.6872 21.5799 56.4457 23.5525 56.4457H24.709C25.2016 60.1437 28.0849 63 31.5458 63C35.0173 63 37.8919 60.1437 38.3829 56.4457H39.5387C41.5227 56.4457 43.1337 54.6872 43.1794 52.4951H43.1804V52.3994C43.1804 52.4314 43.1801 52.4633 43.1794 52.4951H19.9118C19.9111 52.4633 19.9108 52.4314 19.9108 52.3994ZM37.0492 29.2594C37.0492 30.7848 35.9322 32.0388 34.5593 32.0388C33.7798 32.0388 33.0584 31.6381 32.5814 30.94C32.5756 30.9335 32.5668 30.927 32.5581 30.9206C32.5494 30.9141 32.5407 30.9076 32.5349 30.9012C32.4767 30.8236 32.4069 30.759 32.3371 30.7073C32.2789 30.6556 32.2323 30.6168 32.1742 30.578C32.1601 30.5728 32.1465 30.5676 32.1332 30.5625L32.1331 30.5624C32.0804 30.5422 32.0321 30.5237 31.9764 30.5134C31.895 30.4875 31.8135 30.4616 31.7204 30.4488C31.7088 30.4488 31.7001 30.4455 31.6914 30.4423C31.6826 30.4391 31.6739 30.4358 31.6622 30.4358C31.6448 30.4358 31.6274 30.4423 31.6099 30.4487C31.5925 30.4552 31.575 30.4616 31.5576 30.4616C31.4528 30.4746 31.3597 30.4875 31.2667 30.5263C31.2432 30.5394 31.2167 30.5557 31.1902 30.5721L31.1902 30.5721C31.1643 30.5881 31.1384 30.604 31.1154 30.6168C31.0891 30.6344 31.0628 30.6466 31.0376 30.6583L31.0375 30.6583C31.007 30.6726 30.978 30.686 30.9525 30.7073C30.9293 30.7245 30.9164 30.7417 30.9035 30.7589L30.9035 30.7589L30.9035 30.7589C30.8987 30.7652 30.894 30.7716 30.8887 30.7779L30.8827 30.7848C30.8653 30.8107 30.8478 30.8333 30.8304 30.8559C30.8129 30.8786 30.7955 30.9012 30.778 30.9271L30.7625 30.9508L30.738 30.9879C30.6937 31.0546 30.651 31.1189 30.6152 31.1985C30.5951 31.2319 30.5837 31.2843 30.5735 31.3312L30.5735 31.3312L30.5686 31.3536C30.5453 31.4571 30.5221 31.5605 30.5104 31.6768C30.5104 31.6822 30.5084 31.6897 30.5061 31.6986L30.5061 31.6986C30.5028 31.7112 30.4988 31.7264 30.4988 31.7415V37.6622H19.4922C19.4541 37.6122 19.4163 37.5622 19.3785 37.5123L19.3778 37.5114L19.3778 37.5114C19.162 37.2261 18.9484 36.9436 18.701 36.6798C15.0361 32.7757 13.0116 27.385 13 21.7486H18.4567C18.1542 22.5889 18.0495 23.5196 18.1659 24.4504C18.4451 26.6998 20.0391 28.5484 22.0402 28.9362C22.3427 29.0009 22.6336 29.0267 22.9245 29.0267C24.0647 29.0267 25.1584 28.6002 26.031 27.7857C27.1247 26.7644 27.753 25.2778 27.753 23.6877C27.753 23.0155 27.6482 22.3562 27.4388 21.7486H30.4988V26.7903C30.4988 26.8032 30.5017 26.8129 30.5046 26.8226C30.5075 26.8323 30.5104 26.842 30.5104 26.8549C30.5193 26.9434 30.5348 27.0169 30.552 27.0981L30.552 27.0983L30.5521 27.0986C30.5575 27.1241 30.563 27.1504 30.5686 27.1781L30.5686 27.1783C30.5802 27.2299 30.5919 27.2816 30.6152 27.3332C30.651 27.4129 30.6937 27.4772 30.7381 27.5439L30.7381 27.544L30.7381 27.5441C30.7513 27.5639 30.7647 27.584 30.778 27.6047C30.7955 27.6241 30.8129 27.6467 30.8304 27.6693C30.8478 27.692 30.8653 27.7146 30.8827 27.734C30.8917 27.7439 30.8989 27.7558 30.9064 27.7681C30.9184 27.7878 30.9311 27.8086 30.9525 27.8245C30.998 27.8548 31.0505 27.8772 31.099 27.8979C31.1126 27.9036 31.1259 27.9093 31.1387 27.915C31.1736 27.9409 31.2085 27.9667 31.2551 27.9796C31.3714 28.0314 31.4761 28.0572 31.6041 28.0572C31.6157 28.0572 31.6245 28.0604 31.6332 28.0636C31.6419 28.0669 31.6506 28.0701 31.6622 28.0701H31.6972C31.8135 28.0701 31.9298 28.0314 32.0462 27.9925L32.0469 27.9923L32.0469 27.9923C32.0816 27.9794 32.1162 27.9666 32.1393 27.9538C32.2323 27.902 32.3138 27.8374 32.3952 27.7598L32.4112 27.7466C32.45 27.7146 32.4808 27.6891 32.5116 27.6435C32.5231 27.6306 32.5347 27.621 32.5463 27.6113C32.558 27.6016 32.5697 27.5919 32.5814 27.5788C33.0584 26.8937 33.7798 26.493 34.5593 26.493C35.9322 26.493 37.0492 27.734 37.0492 29.2594ZM44.5304 36.7831C48.2186 32.9048 50.3478 27.4107 50.3595 21.7485H41.8079C41.6683 21.7485 41.5286 21.7097 41.4006 21.658C41.3841 21.6488 41.3691 21.6397 41.355 21.6311L41.3549 21.631L41.3548 21.631C41.3292 21.6154 41.3067 21.6017 41.2843 21.5933C41.1912 21.5417 41.1214 21.49 41.0516 21.4123C41.0341 21.393 41.0167 21.3768 40.9992 21.3607C40.9818 21.3445 40.9643 21.3284 40.9468 21.309C40.8887 21.2314 40.8305 21.1409 40.7957 21.0504C40.7724 20.9987 40.7491 20.9599 40.7258 20.9212C40.7258 20.8953 40.7142 20.8824 40.7026 20.8694C40.6676 20.7272 40.6444 20.598 40.6444 20.4557C40.6444 20.4493 40.6473 20.4428 40.6502 20.4364C40.6513 20.4338 40.6524 20.4313 40.6534 20.4288C40.6549 20.4249 40.656 20.4209 40.656 20.417C40.656 20.2748 40.6793 20.1325 40.7258 20.0033C40.7374 19.9516 40.7607 19.9128 40.784 19.8741C40.8305 19.7836 40.877 19.6931 40.9353 19.6155L41.0399 19.4991C41.0516 19.4861 41.0604 19.4732 41.0691 19.4602L41.0691 19.4602L41.0692 19.4602C41.0778 19.4473 41.0865 19.4344 41.0981 19.4216C41.8427 18.8011 42.2034 17.8056 42.0522 16.7714C41.8893 15.6468 41.0399 14.6902 40.0394 14.4962C39.2831 14.367 38.5501 14.5867 37.98 15.1167C37.4215 15.6468 37.0957 16.4224 37.0957 17.2368C37.0957 18.0901 37.4564 18.8916 38.0731 19.4345C38.0881 19.4428 38.0983 19.4566 38.1098 19.4722L38.1098 19.4722C38.1162 19.4808 38.123 19.4899 38.1312 19.4991L38.236 19.6155C38.2939 19.6928 38.3403 19.7829 38.3867 19.873L38.3872 19.8741C38.4105 19.9128 38.4337 19.9645 38.4454 20.0033C38.4919 20.1325 38.5152 20.2748 38.5152 20.404C38.5152 20.4192 38.5192 20.4299 38.5225 20.4388C38.5248 20.445 38.5268 20.4504 38.5268 20.4557V20.4687C38.5268 20.598 38.5036 20.7402 38.4687 20.8694C38.4642 20.8793 38.4598 20.8854 38.456 20.8906C38.4498 20.8991 38.4454 20.9052 38.4454 20.9212C38.4221 20.9599 38.3988 20.9987 38.3872 21.0504C38.3407 21.1409 38.2825 21.2314 38.2243 21.309L38.2231 21.3104C38.1886 21.3486 38.1541 21.3869 38.1196 21.4123C38.0498 21.49 37.98 21.5417 37.8869 21.5933C37.8644 21.6017 37.8419 21.6154 37.8163 21.631C37.8021 21.6396 37.7871 21.6488 37.7706 21.658C37.6426 21.7097 37.503 21.7485 37.3634 21.7485H32.8258V24.2952C33.3726 24.0625 33.9544 23.9074 34.5593 23.9074C37.2238 23.9074 39.3762 26.3119 39.3762 29.2593C39.3762 32.2197 37.2238 34.6242 34.5593 34.6242C33.9544 34.6242 33.3726 34.4691 32.8258 34.2235V37.6621H43.8323L43.9192 37.5448C44.1119 37.2843 44.308 37.019 44.5304 36.7831ZM41.668 43.3631C41.7378 42.3031 41.9821 41.243 42.3777 40.2476H20.9347C21.3303 41.256 21.5746 42.3031 21.6561 43.3631H41.668Z" fill="url(#paint0_linear_1279_21)"/>
<defs>
<linearGradient id="paint0_linear_1279_21" x1="32.7792" y1="4.23185" x2="32.7792" y2="51.4169" gradientUnits="userSpaceOnUse">
<stop stop-color="#62F659"/>
<stop offset="1" stop-color="#50B403"/>
</linearGradient>
</defs>
</svg>
