<svg width="63" height="64" viewBox="0 0 63 64" fill="none" xmlns="http://www.w3.org/2000/svg">
<path fill-rule="evenodd" clip-rule="evenodd" d="M54.6842 59.3417C54.6842 57.328 53.2082 55.688 51.3958 55.688L35.6225 55.6925V47.5422H58.1903C60.0929 47.5422 61.6428 45.8246 61.6428 43.7107V41.6424H2.00063V43.7107C2.00063 45.8246 3.54648 47.5422 5.449 47.5422H28.0169V55.6925H12.2435C10.4311 55.6925 8.9551 57.3325 8.9551 59.3462C8.9551 61.3599 10.4271 63 12.2435 63H51.3972C53.2096 62.9954 54.6856 61.36 54.6856 59.3417L54.6842 59.3417ZM2.00031 39.7694H61.6425V8.57598C61.6425 6.46209 60.0925 4.74451 58.19 4.74451H5.44837C3.54585 4.74451 2 6.46209 2 8.57598L2.00031 39.7694Z" fill="#83C5FF"/>
<path d="M28.44 19.0408C25.5272 11.0412 15.9209 8.89739 10.4734 15.0704C3.57006 22.7686 8.48337 35.9789 18.2622 35.988C26.0459 36.0639 31.4643 26.9976 28.44 19.0419V19.0408ZM16.4148 21.68C18.9329 19.0511 22.4709 22.9893 20.1088 25.7896C17.5907 28.4185 14.0526 24.4803 16.4148 21.68ZM11.891 26.3608C12.1731 26.2159 12.5068 26.355 12.637 26.6689C13.2229 28.0977 14.3409 29.3403 15.6253 29.9933C16.1719 30.2611 15.9766 31.2049 15.3876 31.1876C13.7282 30.5968 12.3488 28.9196 11.6151 27.192C11.4797 26.8781 11.6037 26.5069 11.892 26.362L11.891 26.3608ZM24.6323 21.1074C24.3595 21.2465 24.0123 21.1223 23.8863 20.7993C23.3004 19.3705 22.1824 18.1279 20.898 17.4749C20.6159 17.33 20.4909 16.9599 20.6211 16.6449C21.2597 14.9333 26.1699 20.3613 24.6312 21.1061L24.6323 21.1074Z" fill="url(#paint0_linear_1279_11)"/>
<path d="M43.9869 7.99769C49.7841 7.99769 54.4836 6.43121 54.4836 4.49885C54.4836 2.56649 49.7841 1 43.9869 1C38.1898 1 33.4902 2.56649 33.4902 4.49885C33.4902 6.43121 38.1898 7.99769 43.9869 7.99769Z" fill="url(#paint1_linear_1279_11)"/>
<path d="M54.4836 7.99768V13.8026C54.4836 15.7532 49.7812 17.3279 43.9869 17.3279C38.1927 17.3279 33.4902 15.7532 33.4902 13.8026V7.99768C36.6707 10.1363 42.4858 10.2773 43.9869 10.2773C45.488 10.2773 51.303 10.1363 54.4836 7.99768Z" fill="url(#paint2_linear_1279_11)"/>
<path d="M54.4836 17.3279V23.1328C54.4836 25.0834 49.7812 26.6581 43.9869 26.6581C38.1927 26.6581 33.4902 25.0834 33.4902 23.1328V17.3279C36.6707 19.4665 42.4858 19.6075 43.9869 19.6075C45.488 19.6075 51.303 19.4665 54.4836 17.3279Z" fill="url(#paint3_linear_1279_11)"/>
<path d="M54.4836 26.6583V32.4633C54.4836 34.4139 49.7812 35.9886 43.9869 35.9886C38.1927 35.9886 33.4902 34.4139 33.4902 32.4633V26.6583C36.6707 28.797 42.4858 28.938 43.9869 28.938C45.488 28.938 51.303 28.797 54.4836 26.6583Z" fill="url(#paint4_linear_1279_11)"/>
<defs>
<linearGradient id="paint0_linear_1279_11" x1="18.2698" y1="11.4966" x2="18.2698" y2="35.9885" gradientUnits="userSpaceOnUse">
<stop stop-color="#4B5DFB"/>
<stop offset="1" stop-color="#011093"/>
</linearGradient>
<linearGradient id="paint1_linear_1279_11" x1="43.9869" y1="-0.749424" x2="43.9869" y2="7.99769" gradientUnits="userSpaceOnUse">
<stop stop-color="#006FFF"/>
<stop offset="1" stop-color="#000F99"/>
</linearGradient>
<linearGradient id="paint2_linear_1279_11" x1="43.9869" y1="5.66512" x2="43.9869" y2="17.3279" gradientUnits="userSpaceOnUse">
<stop stop-color="#006FFF"/>
<stop offset="1" stop-color="#000F99"/>
</linearGradient>
<linearGradient id="paint3_linear_1279_11" x1="43.9869" y1="14.9953" x2="43.9869" y2="26.6581" gradientUnits="userSpaceOnUse">
<stop stop-color="#006FFF"/>
<stop offset="1" stop-color="#000F99"/>
</linearGradient>
<linearGradient id="paint4_linear_1279_11" x1="43.9869" y1="24.3258" x2="43.9869" y2="35.9886" gradientUnits="userSpaceOnUse">
<stop stop-color="#006FFF"/>
<stop offset="1" stop-color="#000F99"/>
</linearGradient>
</defs>
</svg>
