<svg width="63" height="64" viewBox="0 0 63 64" fill="none" xmlns="http://www.w3.org/2000/svg">
<path fill-rule="evenodd" clip-rule="evenodd" d="M55.4435 6.04869C53.0661 3.63825 50.0369 1.99661 46.739 1.33139C43.4412 0.666167 40.0228 1.00724 36.9161 2.31147C33.8095 3.6157 31.1542 5.8245 29.286 8.65854C27.4178 11.4926 26.4207 14.8246 26.4207 18.2331C26.4207 21.6416 27.4178 24.9736 29.286 27.8076C31.1542 30.6417 33.8095 32.8505 36.9161 34.1547C40.0228 35.4589 43.4412 35.8 46.739 35.1348C50.0369 34.4696 53.0661 32.8279 55.4435 30.4175C58.6309 27.1858 60.4216 22.803 60.4216 18.2331C60.4216 13.6632 58.6309 9.28042 55.4435 6.04869ZM42.3647 3.92188C42.3647 3.63721 42.4763 3.3642 42.6748 3.16291C42.8734 2.96162 43.1427 2.84854 43.4236 2.84854C43.7044 2.84854 43.9737 2.96162 44.1723 3.16291C44.3709 3.3642 44.4824 3.63721 44.4824 3.92188V4.73682C44.4824 5.02149 44.3709 5.2945 44.1723 5.49579C43.9737 5.69708 43.7044 5.81016 43.4236 5.81016C43.1427 5.81016 42.8734 5.69708 42.6748 5.49579C42.4763 5.2945 42.3647 5.02149 42.3647 4.73682V3.92188ZM32.6978 8.89105C32.5999 8.79186 32.5223 8.67411 32.4694 8.54451C32.4164 8.41491 32.3891 8.27601 32.3891 8.13574C32.3891 7.99546 32.4164 7.85656 32.4694 7.72696C32.5223 7.59737 32.5999 7.47961 32.6978 7.38042C32.7956 7.28123 32.9118 7.20255 33.0396 7.14887C33.1675 7.09519 33.3045 7.06756 33.4429 7.06756C33.5813 7.06756 33.7183 7.09519 33.8462 7.14887C33.974 7.20255 34.0902 7.28123 34.188 7.38042L34.7567 7.94691C34.8552 8.04675 34.9333 8.16528 34.9866 8.29573C35.0399 8.42618 35.0673 8.56599 35.0673 8.70719C35.0673 8.84839 35.0399 8.9882 34.9866 9.11865C34.9333 9.2491 34.8552 9.36763 34.7567 9.46747C34.6582 9.56732 34.5412 9.64652 34.4125 9.70055C34.2839 9.75458 34.1459 9.78239 34.0066 9.78239C33.8673 9.78239 33.7294 9.75458 33.6007 9.70055C33.472 9.64652 33.3551 9.56732 33.2566 9.46747L32.6978 8.89105ZM29.3055 19.3064C29.0247 19.3064 28.7554 19.1934 28.5568 18.9921C28.3582 18.7908 28.2467 18.5178 28.2467 18.2331C28.2467 17.9484 28.3582 17.6754 28.5568 17.4741C28.7554 17.2728 29.0247 17.1598 29.3055 17.1598H30.1095C30.3903 17.1598 30.6596 17.2728 30.8582 17.4741C31.0568 17.6754 31.1683 17.9484 31.1683 18.2331C31.1683 18.5178 31.0568 18.7908 30.8582 18.9921C30.6596 19.1934 30.3903 19.3064 30.1095 19.3064H29.3055ZM34.2076 29.1056C34.01 29.306 33.742 29.4185 33.4625 29.4185C33.183 29.4185 32.915 29.306 32.7174 29.1056C32.5198 28.9053 32.4087 28.6336 32.4087 28.3503C32.4087 28.067 32.5198 27.7953 32.7174 27.595L33.2762 27.0186C33.3747 26.9187 33.4916 26.8396 33.6203 26.7855C33.749 26.7315 33.887 26.7037 34.0262 26.7037C34.1655 26.7037 34.3035 26.7315 34.4322 26.7855C34.5608 26.8396 34.6778 26.9187 34.7763 27.0186C34.8748 27.1184 34.9529 27.237 35.0062 27.3674C35.0595 27.4979 35.0869 27.6377 35.0869 27.7789C35.0869 27.9201 35.0595 28.0599 35.0062 28.1903C34.9529 28.3208 34.8748 28.4393 34.7763 28.5392L34.2076 29.1056ZM44.502 32.5443C44.502 32.829 44.3905 33.102 44.1919 33.3033C43.9933 33.5046 43.724 33.6177 43.4432 33.6177C43.1623 33.6177 42.893 33.5046 42.6944 33.3033C42.4959 33.102 42.3843 32.829 42.3843 32.5443V31.7294C42.3843 31.4447 42.4959 31.1717 42.6944 30.9704C42.893 30.7691 43.1623 30.656 43.4432 30.656C43.724 30.656 43.9933 30.7691 44.1919 30.9704C44.3905 31.1717 44.502 31.4447 44.502 31.7294V32.5443ZM54.1689 27.5751C54.3666 27.7755 54.4776 28.0472 54.4776 28.3305C54.4776 28.6137 54.3666 28.8854 54.1689 29.0858C53.9713 29.2861 53.7033 29.3986 53.4238 29.3986C53.1443 29.3986 52.8763 29.2861 52.6787 29.0858L52.1101 28.5193C51.9111 28.3176 51.7994 28.0442 51.7994 27.759C51.7994 27.4738 51.9111 27.2004 52.1101 26.9987C52.309 26.7971 52.5788 26.6838 52.8601 26.6838C53.1414 26.6838 53.4112 26.7971 53.6101 26.9987L54.1689 27.5751ZM52.6591 7.36055C52.8567 7.16023 53.1247 7.04768 53.4042 7.04768C53.6837 7.04768 53.9517 7.16023 54.1493 7.36055C54.3469 7.56087 54.458 7.83256 54.458 8.11586C54.458 8.39916 54.3469 8.67085 54.1493 8.87118L53.5905 9.4476C53.492 9.54744 53.3751 9.62664 53.2464 9.68067C53.1177 9.73471 52.9798 9.76252 52.8405 9.76252C52.7012 9.76252 52.5633 9.73471 52.4346 9.68067C52.3059 9.62664 52.1889 9.54744 52.0905 9.4476C51.992 9.34776 51.9138 9.22923 51.8605 9.09878C51.8072 8.96833 51.7798 8.82851 51.7798 8.68731C51.7798 8.54612 51.8072 8.4063 51.8605 8.27585C51.9138 8.1454 51.992 8.02687 52.0905 7.92703L52.6591 7.36055ZM42.3647 10.3421C42.3647 10.0574 42.4763 9.78437 42.6748 9.58308C42.8734 9.38179 43.1427 9.26871 43.4236 9.26871C43.7044 9.26871 43.9737 9.38179 44.1723 9.58308C44.3709 9.78437 44.4824 10.0574 44.4824 10.3421V17.8057L51.0806 24.4943C51.2605 24.6993 51.356 24.9664 51.3476 25.2406C51.3392 25.5149 51.2276 25.7755 51.0355 25.9689C50.8435 26.1622 50.5857 26.2737 50.3151 26.2804C50.0445 26.2871 49.7817 26.1885 49.5806 26.0049L42.7177 19.048C42.6157 18.9491 42.5345 18.8303 42.4789 18.6988C42.4233 18.5674 42.3945 18.4258 42.3941 18.2828V10.2824L42.3647 10.3421ZM57.5416 17.1598C57.8224 17.1598 58.0917 17.2728 58.2903 17.4741C58.4889 17.6754 58.6004 17.9484 58.6004 18.2331C58.6004 18.5178 58.4889 18.7908 58.2903 18.9921C58.0917 19.1934 57.8224 19.3064 57.5416 19.3064H56.7376C56.4568 19.3064 56.1875 19.1934 55.9889 18.9921C55.7903 18.7908 55.6788 18.5178 55.6788 18.2331C55.6788 17.9484 55.7903 17.6754 55.9889 17.4741C56.1875 17.2728 56.4568 17.1598 56.7376 17.1598H57.5416ZM5.18724 41.0913L0.353778 43.9237C0.272606 43.9719 0.201612 44.0359 0.144858 44.112C0.0881048 44.1881 0.0467058 44.2747 0.0230297 44.367C-0.000646412 44.4594 -0.00613487 44.5555 0.0068785 44.65C0.0198919 44.7444 0.0511515 44.8353 0.0988689 44.9175L10.1972 62.6376C10.2438 62.7209 10.3064 62.7938 10.3814 62.8521C10.4563 62.9104 10.5421 62.9529 10.6335 62.977C10.7249 63.0011 10.8202 63.0063 10.9136 62.9924C11.0071 62.9785 11.0969 62.9457 11.1776 62.896L16.0797 60.004C16.2171 59.9073 16.3162 59.7643 16.3592 59.6005C16.4023 59.4367 16.3867 59.2627 16.315 59.1095C16.315 59.1095 16.266 59.03 16.2464 58.9803L6.24609 41.4093C6.20215 41.3104 6.13717 41.2226 6.05581 41.1522C5.97445 41.0817 5.87872 41.0304 5.77549 41.0018C5.67693 40.9725 5.57322 40.9652 5.47162 40.9807C5.37001 40.9961 5.27296 41.0339 5.18724 41.0913ZM9.44226 42.7212L19.8935 36.6091C20.3535 36.331 20.8649 36.1513 21.3961 36.0813C21.9272 36.0112 22.4669 36.0521 22.9818 36.2016L39.1391 40.5944C39.4673 40.6736 39.7759 40.8203 40.0457 41.0254C40.3156 41.2306 40.5409 41.4898 40.7078 41.787C40.9514 42.2202 41.0636 42.7167 41.0301 43.2143C40.9967 43.7118 40.8192 44.1883 40.5198 44.5841C40.2205 44.9798 39.8126 45.2772 39.3472 45.4391C38.8819 45.601 38.3798 45.62 37.9038 45.494L32.7566 44.0728C32.4863 44.0025 32.1996 44.0421 31.9578 44.1833C31.716 44.3244 31.5382 44.5559 31.4625 44.8281C31.427 44.9645 31.4184 45.1066 31.4371 45.2464C31.4558 45.3862 31.5016 45.5208 31.5717 45.6426C31.6418 45.7645 31.7349 45.8711 31.8457 45.9564C31.9565 46.0418 32.0828 46.1041 32.2174 46.14L41.0411 48.5252C41.6003 48.6904 42.1868 48.7386 42.7649 48.6668C43.343 48.5951 43.9007 48.4049 44.404 48.1078L58.9926 39.5707C59.6114 39.2138 60.3437 39.1174 61.0319 39.3024C61.5398 39.4452 61.995 39.7364 62.3409 40.1396C62.6867 40.5428 62.9079 41.0403 62.9769 41.57C63.0459 42.0997 62.9596 42.6383 62.7288 43.1187C62.498 43.5991 62.1329 44 61.6789 44.2716L40.6098 56.5951C39.5723 57.2252 38.4182 57.6323 37.2191 57.7913C36.0199 57.9503 34.8014 57.8578 33.639 57.5194L20.119 53.8521C19.9714 53.8136 19.8174 53.807 19.6671 53.8327C19.5168 53.8584 19.3735 53.9158 19.2464 54.0012L16.7072 55.4919L9.43245 42.7311L9.44226 42.7212Z" fill="url(#paint0_linear_1279_30)"/>
<defs>
<linearGradient id="paint0_linear_1279_30" x1="31.5" y1="1" x2="31.5" y2="63" gradientUnits="userSpaceOnUse">
<stop stop-color="#8902E9"/>
<stop offset="1" stop-color="#C87CFF"/>
</linearGradient>
</defs>
</svg>
