<svg width="63" height="64" viewBox="0 0 63 64" fill="none" xmlns="http://www.w3.org/2000/svg">
<g clip-path="url(#clip0_1279_12)">
<g clip-path="url(#clip1_1279_12)">
<path d="M37.1117 32.2424H55.1675C58.3673 32.2424 60.9712 34.8463 60.9712 38.0461V62.5505C60.9712 62.8213 60.801 63.0638 60.5456 63.1566C60.4734 63.1824 60.3999 63.1953 60.3263 63.1953C60.138 63.1953 59.9562 63.1141 59.8311 62.9632L53.576 55.4571H37.1117C33.9119 55.4571 31.308 52.8532 31.308 49.6534V38.0461C31.308 34.8463 33.9119 32.2424 37.1117 32.2424Z" fill="#FB8634"/>
</g>
<g clip-path="url(#clip2_1279_12)">
<path d="M48.289 1.18225H10.4577C5.89433 1.18225 2.18213 4.89445 2.18213 9.45785V33.1024C2.18213 37.6658 5.89433 41.378 10.4577 41.378H15.6383L9.39845 53.8529C9.15255 54.3447 9.27787 54.9382 9.69874 55.2881C9.91863 55.4725 10.1882 55.5648 10.4577 55.5648C10.706 55.5648 10.9566 55.4867 11.1671 55.3283L29.7683 41.378H48.289C52.8525 41.378 56.5646 37.6658 56.5646 33.1024V9.45785C56.5646 4.89445 52.8525 1.18225 48.289 1.18225ZM11.64 30.738C11.64 31.3906 11.1103 31.9202 10.4577 31.9202C9.80514 31.9202 9.2755 31.3906 9.2755 30.738V26.0091C9.2755 25.3565 9.80514 24.8268 10.4577 24.8268C11.1103 24.8268 11.64 25.3565 11.64 26.0091V30.738ZM16.3689 30.738C16.3689 31.3906 15.8392 31.9202 15.1866 31.9202C14.5341 31.9202 14.0044 31.3906 14.0044 30.738V21.2801C14.0044 20.6275 14.5341 20.0979 15.1866 20.0979C15.8392 20.0979 16.3689 20.6275 16.3689 21.2801V30.738ZM21.0978 30.738C21.0978 31.3906 20.5681 31.9202 19.9156 31.9202C19.263 31.9202 18.7333 31.3906 18.7333 30.738V16.5512C18.7333 15.8986 19.263 15.369 19.9156 15.369C20.5681 15.369 21.0978 15.8986 21.0978 16.5512V30.738ZM25.8267 30.738C25.8267 31.3906 25.2971 31.9202 24.6445 31.9202C23.9919 31.9202 23.4622 31.3906 23.4622 30.738V11.8223C23.4622 11.1697 23.9919 10.6401 24.6445 10.6401C25.2971 10.6401 25.8267 11.1697 25.8267 11.8223V30.738ZM46.1658 26.5198C44.5721 29.8513 41.3092 31.9202 37.649 31.9202C32.433 31.9202 28.1912 27.6784 28.1912 22.4624C28.1912 18.7998 30.2601 15.5369 33.5916 13.9456C33.9581 13.7706 34.3884 13.7943 34.7312 14.0118C35.0765 14.2293 35.2845 14.6076 35.2845 15.0143V21.2801C35.2845 23.2355 36.8758 24.8268 38.8312 24.8268H45.097C45.5037 24.8268 45.8797 25.0349 46.0972 25.3777C46.3147 25.7206 46.3407 26.1533 46.1658 26.5198ZM48.289 22.4624H38.8312C38.1786 22.4624 37.649 21.9327 37.649 21.2801V11.8223C37.649 11.1697 38.1786 10.6401 38.8312 10.6401C44.6974 10.6401 49.4713 15.4139 49.4713 21.2801C49.4713 21.9327 48.9416 22.4624 48.289 22.4624Z" fill="url(#paint0_linear_1279_12)"/>
</g>
</g>
<defs>
<linearGradient id="paint0_linear_1279_12" x1="29.3734" y1="1.18225" x2="29.3734" y2="55.5648" gradientUnits="userSpaceOnUse">
<stop stop-color="#FB8634"/>
<stop offset="1" stop-color="#DF0909"/>
</linearGradient>
<clipPath id="clip0_1279_12">
<rect width="63" height="64" fill="white"/>
</clipPath>
<clipPath id="clip1_1279_12">
<rect width="30.9529" height="38.6911" fill="white" transform="matrix(-1 0 0 1 61.616 32.2426)"/>
</clipPath>
<clipPath id="clip2_1279_12">
<rect width="56.747" height="70.9337" fill="white" transform="translate(1)"/>
</clipPath>
</defs>
</svg>
